<?xml version="1.0" standalone="no"?>
<!DOCTYPE svg PUBLIC "-//W3C//DTD SVG 20010904//EN"
 "http://www.w3.org/TR/2001/REC-SVG-20010904/DTD/svg10.dtd">
<svg version="1.0" xmlns="http://www.w3.org/2000/svg"
 width="64.000000pt" height="64.000000pt" viewBox="0 0 64.000000 64.000000"
 preserveAspectRatio="xMidYMid meet">

<g transform="translate(0.000000,64.000000) scale(0.100000,-0.100000)"
fill="#000000" stroke="none">
<path d="M265 631 c-11 -5 -33 -10 -50 -10 -36 -1 -89 -32 -104 -60 -23 -41
-25 -109 -5 -138 10 -16 26 -49 35 -75 l16 -48 -42 0 c-32 0 -47 -6 -69 -29
-16 -17 -23 -31 -18 -35 6 -4 13 -2 17 4 18 30 25 -1 25 -115 l0 -125 250 0
250 0 0 125 c0 114 7 145 25 115 4 -6 11 -8 17 -4 5 4 -2 18 -18 35 -22 23
-36 29 -70 29 l-42 0 17 47 c9 26 24 55 34 65 34 36 13 145 -35 181 -40 30
-195 55 -233 38z m130 -43 c31 -24 55 -74 55 -116 0 -15 7 -37 15 -48 24 -32
19 -80 -11 -103 -23 -18 -41 -21 -134 -21 -93 0 -111 3 -134 21 -30 23 -35 71
-11 103 8 11 15 33 15 48 0 42 24 92 55 116 38 30 112 30 150 0z m-195 -2 c0
-2 -7 -17 -15 -32 -8 -16 -15 -41 -15 -56 0 -35 -20 -80 -34 -75 -13 4 -20 70
-12 103 7 27 44 64 63 64 7 0 13 -2 13 -4z m281 -9 c9 -7 21 -22 27 -34 16
-28 16 -123 1 -123 -20 0 -38 34 -39 70 0 19 -7 48 -15 64 -8 15 -15 30 -15
32 0 8 26 3 41 -9z m64 -427 l0 -125 -225 0 -225 0 -3 114 c-1 63 0 121 2 128
4 11 50 13 228 11 l223 -3 0 -125z"/>
<path d="M234 484 c3 -9 6 -20 6 -25 0 -5 5 -9 10 -9 6 0 10 11 10 25 0 16 -6
25 -16 25 -11 0 -14 -5 -10 -16z"/>
<path d="M380 475 c0 -14 5 -25 10 -25 6 0 10 4 10 9 0 5 3 16 6 25 4 11 1 16
-10 16 -10 0 -16 -9 -16 -25z"/>
<path d="M293 423 c-18 -7 -16 -38 2 -53 8 -7 12 -16 9 -21 -9 -15 -22 -10
-29 11 -8 25 -25 26 -25 1 0 -28 20 -39 70 -39 50 0 70 11 70 39 0 25 -17 24
-25 -1 -7 -21 -20 -26 -29 -11 -3 5 1 14 9 21 39 32 -2 74 -52 53z m40 -30
c-7 -2 -19 -2 -25 0 -7 3 -2 5 12 5 14 0 19 -2 13 -5z"/>
<path d="M255 200 c-22 -24 -14 -48 30 -90 l35 -34 35 34 c44 42 52 66 30 90
-11 12 -30 18 -65 18 -35 0 -54 -6 -65 -18z m115 -29 c0 -10 -11 -28 -25 -41
l-25 -23 -25 23 c-42 39 -33 58 25 58 41 0 50 -4 50 -17z"/>
</g>
</svg>
