<?xml version="1.0" encoding="UTF-8"?>
<svg version="1.1" xmlns="http://www.w3.org/2000/svg" width="64" height="64">
<path d="M0 0 C10 0 10 0 13 2 C14.91075851 2.19554546 16.83030624 2.31165985 18.75 2.375 C23.54505366 2.68472835 26.19269637 3.40836126 30.07421875 6.0859375 C33.62989504 7.77362158 37.54635053 7.60000642 41.42578125 7.7265625 C44 8 44 8 46 10 C46 10.99 46 11.98 46 13 C47.19496094 12.53207031 47.19496094 12.53207031 48.4140625 12.0546875 C49.47367188 11.66539063 50.53328125 11.27609375 51.625 10.875 C52.66914062 10.48054688 53.71328125 10.08609375 54.7890625 9.6796875 C58.55636426 8.88222946 60.50791305 9.5003951 64 11 C64.25 14.3125 64.25 14.3125 64 18 C59.77984915 21.90880342 54.12728722 23.8746959 48.9375 26.1875 C47.95072266 26.65091797 46.96394531 27.11433594 45.94726562 27.59179688 C38.63163765 30.84478404 31.71245904 32.77411538 23.82641602 30.32495117 C21.90559271 29.48720371 20.12438974 28.55101779 18.3125 27.5 C17.69439453 27.16613281 17.07628906 26.83226563 16.43945312 26.48828125 C14.94841819 25.67919253 13.47236769 24.84258122 12 24 C12 24.66 12 25.32 12 26 C8.04 26 4.08 26 0 26 C0 17.42 0 8.84 0 0 Z M3 4 C3 10.27 3 16.54 3 23 C4.98 23 6.96 23 9 23 C10.8855253 21.1144747 10.13246689 18.42231169 10.13671875 15.91796875 C10.13285156 15.12003906 10.12898437 14.32210937 10.125 13.5 C10.12886719 12.70207031 10.13273438 11.90414062 10.13671875 11.08203125 C10.5089961 7.2316068 10.5089961 7.2316068 9 4 C7.02 4 5.04 4 3 4 Z M13 6 C13 10.95 13 15.9 13 21 C13.99 21.4125 14.98 21.825 16 22.25 C18.06258658 23.11148194 19.99716557 23.99834754 21.9296875 25.125 C27.1198832 28.12655896 31.14565889 28.39774553 37 27 C41.30394579 25.37966608 45.42297176 23.43615107 49.5625 21.4375 C50.66658203 20.91736328 51.77066406 20.39722656 52.90820312 19.86132812 C55.61126436 18.58585767 58.30800719 17.29862575 61 16 C60.505 14.515 60.505 14.515 60 13 C56.3322784 13.6278082 53.14175094 14.69936561 49.6875 16.0625 C42.13498187 18.67429466 34.87312922 18.35968611 27 18 C27 17.34 27 16.68 27 16 C31.95 15.67 36.9 15.34 42 15 C42 14.01 42 13.02 42 12 C40.34170434 10.34170434 38.21659052 10.79722238 35.9375 10.6875 C31.14060913 10.3161278 28.10522524 9.21918546 23.9921875 6.85546875 C20.37095764 5.30047005 16.87818864 5.75761321 13 6 Z " fill="#000000" transform="translate(0,30)"/>
<path d="M0 0 C2.5 1.5 2.5 1.5 4 3 C4.474375 2.505 4.94875 2.01 5.4375 1.5 C9.24333165 -0.72780389 12.70349754 -0.92504768 17 0 C20.15016301 2.57156164 21.56647587 4.04914141 22.4375 7.96875 C22.7518149 13.07636718 21.29120128 16.03368051 18 20 C15.75272603 22.43365925 13.41980168 24.7386052 11 27 C9.700625 28.2375 9.700625 28.2375 8.375 29.5 C6 31 6 31 3.74609375 30.92578125 C-0.00124918 29.66245227 -2.48392241 27.34423205 -5.3125 24.6875 C-6.13717773 23.95756836 -6.13717773 23.95756836 -6.97851562 23.21289062 C-8.55078125 21.76171875 -8.55078125 21.76171875 -11 19 C-11 17.68 -11 16.36 -11 15 C-9.0625 15.3125 -9.0625 15.3125 -7 16 C-6.67 16.99 -6.34 17.98 -6 19 C-4.67661368 19.68620031 -3.34050052 20.34786461 -2 21 C0.06722076 22.59716811 2.02157854 24.29136328 4 26 C12.61085255 20.45058832 12.61085255 20.45058832 17.40625 11.9140625 C17.57500296 9.47790827 17.57500296 9.47790827 17 6 C14.25394157 3.75378427 14.25394157 3.75378427 11.5 4.0625 C8.21774924 5.29334403 7.50179898 6.91736 6 10 C2.74456771 9.65120368 1.98126893 8.97866739 -0.25 6.4375 C-0.8275 5.633125 -1.405 4.82875 -2 4 C-4.94091587 4.18415432 -4.94091587 4.18415432 -8 5 C-9.43637698 6.95163118 -9.43637698 6.95163118 -10 9 C-10.99 9 -11.98 9 -13 9 C-13.3125 6.75 -13.3125 6.75 -13 4 C-9.03095965 -0.58920291 -5.69854618 -0.6331718 0 0 Z " fill="#000000" transform="translate(33,3)"/>
<path d="M0 0 C0.99 0.33 1.98 0.66 3 1 C3 1.99 3 2.98 3 4 C2.01 4 1.02 4 0 4 C0 2.68 0 1.36 0 0 Z " fill="#000000" transform="translate(5,35)"/>
<path d="M0 0 C1.32 0 2.64 0 4 0 C4 0.99 4 1.98 4 3 C2.68 2.67 1.36 2.34 0 2 C0 1.34 0 0.68 0 0 Z " fill="#000000" transform="translate(19,14)"/>
</svg>
