<?xml version="1.0" standalone="no"?>
<!DOCTYPE svg PUBLIC "-//W3C//DTD SVG 20010904//EN"
 "http://www.w3.org/TR/2001/REC-SVG-20010904/DTD/svg10.dtd">
<svg version="1.0" xmlns="http://www.w3.org/2000/svg"
 width="64.000000pt" height="64.000000pt" viewBox="0 0 64.000000 64.000000"
 preserveAspectRatio="xMidYMid meet">

<g transform="translate(0.000000,64.000000) scale(0.100000,-0.100000)"
fill="#000000" stroke="none">
<path d="M414 626 c-9 -24 0 -51 19 -54 15 -3 18 2 15 29 -3 35 -24 51 -34 25z"/>
<path d="M283 610 c-26 -11 -25 -8 -28 -75 -3 -72 -44 -145 -136 -241 -53 -56
-79 -90 -79 -106 0 -29 77 -108 106 -108 11 0 29 6 40 14 19 14 24 11 75 -40
57 -57 85 -66 112 -36 24 26 21 52 -10 84 -23 25 -26 32 -15 48 15 24 16 62 1
77 -22 22 109 79 155 67 34 -8 66 19 66 56 0 20 -27 53 -123 148 -68 67 -128
122 -133 121 -5 0 -19 -4 -31 -9z m147 -145 c91 -91 112 -117 102 -127 -10
-10 -36 11 -129 104 -101 101 -126 138 -95 138 4 0 59 -52 122 -115z m-49
-162 c-37 -18 -74 -40 -81 -48 -12 -14 -18 -11 -55 25 l-43 42 34 51 c19 28
34 55 34 59 0 4 5 19 10 34 l11 28 79 -79 79 -79 -68 -33z m-169 -50 l38 -37
-47 -48 c-26 -26 -52 -48 -57 -48 -16 0 -66 52 -66 69 0 14 77 101 89 101 3 0
22 -17 43 -37z m108 -63 c0 -19 -20 -27 -33 -13 -8 7 11 33 24 33 5 0 9 -9 9
-20z m30 -137 c0 -25 -26 -12 -73 35 -37 38 -45 50 -35 60 10 10 22 2 60 -35
26 -26 48 -53 48 -60z"/>
<path d="M145 210 c-14 -16 -16 -23 -7 -32 9 -9 16 -7 32 7 11 10 20 24 20 32
0 19 -24 16 -45 -7z"/>
<path d="M512 577 c-25 -26 -29 -47 -9 -47 16 0 57 42 57 58 0 20 -25 14 -48
-11z"/>
<path d="M532 473 c2 -13 12 -18 33 -18 43 0 40 29 -3 33 -28 3 -33 0 -30 -15z"/>
</g>
</svg>
