<?xml version="1.0" standalone="no"?>
<!DOCTYPE svg PUBLIC "-//W3C//DTD SVG 20010904//EN"
 "http://www.w3.org/TR/2001/REC-SVG-20010904/DTD/svg10.dtd">
<svg version="1.0" xmlns="http://www.w3.org/2000/svg"
 width="64.000000pt" height="64.000000pt" viewBox="0 0 64.000000 64.000000"
 preserveAspectRatio="xMidYMid meet">

<g transform="translate(0.000000,64.000000) scale(0.100000,-0.100000)"
fill="#000000" stroke="none">
<path d="M166 618 c-13 -18 -16 -51 -16 -150 l0 -128 -40 -16 c-73 -29 -120
-113 -106 -188 8 -44 59 -104 103 -122 24 -11 92 -14 263 -14 217 0 231 1 250
20 19 19 20 33 20 253 l0 233 -68 67 -68 67 -161 0 c-156 0 -162 -1 -177 -22z
m314 -78 l0 -60 60 0 60 0 0 -220 0 -220 -162 0 -161 0 21 23 c12 13 27 37 33
55 l11 31 101 3 c83 2 102 6 102 18 0 12 -20 16 -103 20 l-104 5 -13 32 -14
32 117 3 c96 2 117 6 117 18 0 12 -25 16 -140 20 -103 4 -150 10 -177 23 l-38
17 0 130 0 130 145 0 145 0 0 -60z m75 -28 c-28 -6 -45 7 -45 35 l0 27 31 -30
c24 -23 27 -30 14 -32z m-330 -226 c94 -40 98 -183 6 -231 -117 -60 -239 71
-171 183 34 55 100 75 165 48z"/>
<path d="M240 396 c0 -22 24 -26 155 -26 131 0 155 4 155 26 0 11 -29 14 -155
14 -126 0 -155 -3 -155 -14z"/>
<path d="M154 247 c-3 -8 -4 -32 -2 -53 3 -38 4 -39 43 -39 29 0 40 4 40 15 0
8 -10 16 -22 18 -16 2 -23 11 -25 34 -3 34 -24 49 -34 25z"/>
</g>
</svg>
